<?xml version="1.0" encoding="UTF-8"?>
<svg version="1.1" xmlns="http://www.w3.org/2000/svg" width="138" height="79">
<path d="M0 0 C45.54 0 91.08 0 138 0 C138 26.07 138 52.14 138 79 C92.46 79 46.92 79 0 79 C0 52.93 0 26.86 0 0 Z " fill="#57E181" transform="translate(0,0)"/>
<path d="M0 0 C12.87 0 25.74 0 39 0 C39 26.07 39 52.14 39 79 C29.43 79 19.86 79 10 79 C10 75.37 10 71.74 10 68 C9.9129286 66.11450265 9.80328022 64.22955346 9.64868164 62.34838867 C9.57182632 61.38756882 9.49497101 60.42674896 9.41578674 59.43681335 C9.33142868 58.44059464 9.24707062 57.44437592 9.16015625 56.41796875 C9.07374374 55.36015701 8.98733124 54.30234528 8.89830017 53.21247864 C8.71631382 50.99637546 8.53217067 48.78044842 8.34594727 46.56469727 C8.06183871 43.17962089 7.78528162 39.79398861 7.50976562 36.40820312 C7.33117177 34.24475508 7.15215031 32.08134229 6.97265625 29.91796875 C6.89032242 28.91162888 6.80798859 27.905289 6.72315979 26.86845398 C6.32768702 22.1970766 5.82572834 17.61891789 5 13 C4.93694796 11.20932194 4.91328886 9.41662421 4.9375 7.625 C4.94652344 6.75101562 4.95554687 5.87703125 4.96484375 4.9765625 C4.98224609 3.99816406 4.98224609 3.99816406 5 3 C3.35 3 1.7 3 0 3 C0 2.01 0 1.02 0 0 Z " fill="#FEFEFE" transform="translate(99,0)"/>
<path d="M0 0 C12.54 0 25.08 0 38 0 C38 0.99 38 1.98 38 3 C36.68 3.33 35.36 3.66 34 4 C32.02 28.75 30.04 53.5 28 79 C18.76 79 9.52 79 0 79 C0 52.93 0 26.86 0 0 Z " fill="#FDFEFE" transform="translate(0,0)"/>
<path d="M0 0 C20.13 0 40.26 0 61 0 C61 0.99 61 1.98 61 3 C40.87 3 20.74 3 0 3 C0 2.01 0 1.02 0 0 Z " fill="#1DCF65" transform="translate(38,0)"/>
<path d="M0 0 C0.66 0 1.32 0 2 0 C2.09796875 0.65226562 2.1959375 1.30453125 2.296875 1.9765625 C3.4762071 8.86955529 5.4164349 13.11248606 10.125 18.375 C14.3984378 20.79042137 18.20474312 20.73891599 23 20 C27.96603814 17.79287194 30.08421935 14.9039879 32.25390625 10.10546875 C33.3348153 7.05515474 33.73157584 4.22108994 34 1 C34.99 1 35.98 1 37 1 C36.82547766 7.85396837 35.34021515 12.63855776 31 18 C28.4375 20.375 28.4375 20.375 26 22 C25.401875 22.4125 24.80375 22.825 24.1875 23.25 C19.8862963 24.72469841 15.98916426 24.87206114 11.84375 23.0546875 C6.14662451 19.67467648 1.78691748 15.55203076 0 9 C-0.15219731 5.99156652 -0.11800406 3.00910344 0 0 Z " fill="#E9FBEE" transform="translate(49,32)"/>
<path d="M0 0 C2.95573125 1.52264943 4.88212241 3.57929219 7.0625 6.0625 C7.0625 6.7225 7.0625 7.3825 7.0625 8.0625 C4.39583333 6.72916667 1.72916667 5.39583333 -0.9375 4.0625 C-1.865625 5.0525 -1.865625 5.0525 -2.8125 6.0625 C-4.9375 8.0625 -4.9375 8.0625 -6.9375 8.0625 C-6.37235283 4.10646981 -4.416552 0.14246942 0 0 Z " fill="#DEF9E6" transform="translate(84.9375,24.9375)"/>
<path d="M0 0 C4.95 0.99 4.95 0.99 10 2 C9.67 2.66 9.34 3.32 9 4 C3.375 4.25 3.375 4.25 0 2 C0 1.34 0 0.68 0 0 Z " fill="#EFFCF3" transform="translate(60,52)"/>
<path d="M0 0 C-2.17424117 2.50037734 -3.73045798 3.43628586 -7 4 C-7 3.67 -7 3.34 -7 3 C-8.65 2.67 -10.3 2.34 -12 2 C-12 1.67 -12 1.34 -12 1 C-10.37681021 0.63762737 -8.7513642 0.28534843 -7.125 -0.0625 C-6.22007813 -0.25972656 -5.31515625 -0.45695312 -4.3828125 -0.66015625 C-2 -1 -2 -1 0 0 Z " fill="#DAF8E3" transform="translate(76,52)"/>
<path d="M0 0 C3.78611227 0.54087318 5.55400767 2.11722332 8 5 C8 5.66 8 6.32 8 7 C4.2047869 5.50902342 2.38957269 3.24299151 0 0 Z " fill="#EFFCF3" transform="translate(84,26)"/>
</svg>
